<svg id="svg" version="1.1" width="28" height="30" viewBox="0 0 400 400" xmlns="http://www.w3.org/2000/svg" xmlns:xlink="http://www.w3.org/1999/xlink" ><g id="svgg"><path id="path0" d="M122.000 203.352 C 122.000 333.346,122.057 346.336,122.633 346.557 C 123.993 347.079,188.000 346.828,188.004 346.300 C 188.007 346.025,188.005 321.569,188.000 291.952 C 187.993 249.115,188.095 238.020,188.496 237.687 C 188.806 237.430,194.932 237.104,204.400 236.840 C 238.457 235.891,237.748 235.964,252.937 231.827 C 265.085 228.519,279.501 222.193,288.400 216.267 C 296.397 210.941,306.143 201.003,309.965 194.278 C 310.364 193.575,311.354 191.874,312.166 190.498 C 313.939 187.491,318.000 178.960,318.000 178.243 C 318.000 177.963,318.116 177.617,318.259 177.475 C 318.690 177.044,319.932 173.251,321.165 168.600 C 332.458 126.014,314.836 87.096,276.441 69.823 C 269.195 66.564,260.279 63.930,251.262 62.386 C 240.877 60.607,242.460 60.649,180.700 60.516 L 122.000 60.390 122.000 203.352 M212.662 111.407 C 239.229 114.321,252.748 124.769,255.167 144.257 C 257.175 160.438,244.159 179.331,228.000 183.689 C 220.255 185.778,221.040 185.704,204.534 185.889 C 193.465 186.013,188.622 185.933,188.034 185.618 L 187.200 185.172 187.206 149.086 C 187.210 128.311,187.366 112.758,187.573 112.429 C 187.838 112.011,189.360 111.772,193.267 111.533 C 196.200 111.354,198.960 111.141,199.400 111.058 C 201.383 110.688,207.593 110.852,212.662 111.407 " stroke="none" fill="#040404" fill-rule="evenodd"></path><path id="path1" d="M280.200 0.400 C 279.540 0.568,276.660 0.730,273.800 0.761 C 270.940 0.791,267.465 0.980,266.078 1.181 C 264.692 1.381,260.372 1.744,256.478 1.986 C 252.585 2.228,248.230 2.599,246.800 2.810 C 245.370 3.020,242.940 3.281,241.400 3.388 C 237.472 3.662,230.972 4.443,221.000 5.840 C 218.580 6.179,215.321 6.597,213.757 6.769 C 212.193 6.942,210.693 7.219,210.423 7.386 C 209.949 7.679,204.732 8.557,199.787 9.177 C 198.460 9.343,196.985 9.687,196.508 9.942 C 195.718 10.365,194.510 10.612,188.600 11.558 C 187.500 11.734,186.060 12.101,185.400 12.373 C 184.740 12.646,183.300 13.041,182.200 13.252 C 178.109 14.035,176.958 14.317,175.250 14.950 C 174.287 15.308,173.083 15.600,172.573 15.600 C 172.064 15.600,171.536 15.780,171.400 16.000 C 171.264 16.220,170.544 16.400,169.800 16.400 C 169.056 16.400,168.351 16.555,168.234 16.745 C 168.117 16.935,167.161 17.312,166.110 17.582 C 165.060 17.853,163.840 18.209,163.400 18.373 C 162.960 18.538,161.340 19.075,159.800 19.568 C 158.260 20.060,156.640 20.611,156.200 20.791 C 155.760 20.971,153.060 21.954,150.200 22.977 C 147.340 23.999,144.280 25.169,143.400 25.576 C 142.520 25.982,141.350 26.493,140.800 26.710 C 136.033 28.593,121.710 35.840,117.800 38.348 C 116.920 38.912,115.596 39.705,114.858 40.110 C 114.121 40.515,113.311 41.021,113.058 41.236 C 112.806 41.450,110.519 43.014,107.976 44.713 C 95.328 53.159,83.359 64.392,70.841 79.567 C 64.591 87.142,55.435 102.852,50.246 114.900 C 49.891 115.725,49.350 116.985,49.043 117.700 C 48.088 119.932,45.302 127.323,44.784 129.000 C 44.512 129.880,44.139 130.960,43.955 131.400 C 43.317 132.927,42.095 136.619,41.043 140.200 C 40.462 142.180,39.734 144.610,39.427 145.600 C 39.120 146.590,38.565 148.660,38.194 150.200 C 37.822 151.740,37.369 153.360,37.187 153.800 C 37.004 154.240,36.761 155.140,36.648 155.800 C 36.401 157.233,35.536 161.140,34.612 165.000 C 34.243 166.540,33.793 168.610,33.611 169.600 C 33.429 170.590,33.094 172.423,32.865 173.674 C 32.637 174.924,32.180 177.084,31.850 178.474 C 31.262 180.943,31.046 182.151,30.608 185.400 C 30.376 187.122,29.461 192.712,28.775 196.600 C 28.542 197.920,28.271 200.170,28.173 201.600 C 28.075 203.030,27.880 204.470,27.739 204.800 C 27.598 205.130,27.348 206.930,27.184 208.800 C 26.632 215.066,25.604 223.698,25.235 225.156 C 25.034 225.950,24.847 228.003,24.819 229.719 C 24.792 231.434,24.623 233.618,24.445 234.572 C 24.267 235.526,24.082 237.812,24.035 239.653 C 23.987 241.494,23.694 245.160,23.382 247.800 C 23.071 250.440,22.812 254.405,22.808 256.610 C 22.804 258.816,22.633 262.056,22.430 263.810 C 22.226 265.565,21.957 270.240,21.833 274.200 C 21.708 278.160,21.433 284.550,21.222 288.400 C 21.011 292.250,20.736 301.430,20.611 308.800 C 20.286 327.920,19.971 336.180,19.559 336.333 C 19.351 336.410,19.200 349.858,19.200 368.233 L 19.200 400.000 76.300 399.997 C 123.265 399.994,134.216 399.893,138.000 399.424 C 140.530 399.111,144.400 398.749,146.600 398.619 C 154.477 398.156,170.628 396.415,180.200 394.997 C 182.400 394.671,185.640 394.234,187.400 394.027 C 189.160 393.820,191.140 393.466,191.800 393.241 C 192.460 393.016,194.350 392.628,196.000 392.378 C 197.650 392.128,199.990 391.773,201.200 391.589 C 202.410 391.404,204.570 390.966,206.000 390.615 C 210.619 389.480,211.993 389.200,212.957 389.200 C 213.477 389.200,214.599 388.900,215.451 388.533 C 216.303 388.166,217.810 387.724,218.800 387.551 C 222.174 386.962,224.198 386.471,225.800 385.853 C 226.680 385.513,227.884 385.227,228.476 385.218 C 229.068 385.208,229.664 385.020,229.800 384.800 C 229.936 384.580,230.496 384.400,231.043 384.400 C 231.591 384.400,232.526 384.152,233.120 383.848 C 233.714 383.545,234.830 383.174,235.600 383.025 C 236.370 382.876,237.360 382.595,237.800 382.400 C 238.240 382.206,239.950 381.602,241.600 381.058 C 243.250 380.514,246.130 379.501,248.000 378.808 C 249.870 378.115,251.940 377.355,252.600 377.120 C 253.260 376.884,253.971 376.535,254.180 376.345 C 254.389 376.155,254.952 376.000,255.431 376.000 C 255.910 376.000,256.517 375.742,256.779 375.426 C 257.041 375.110,257.805 374.731,258.476 374.583 C 259.147 374.436,260.710 373.815,261.948 373.204 C 263.187 372.593,265.910 371.249,268.000 370.218 C 270.090 369.187,272.880 367.736,274.200 366.994 C 275.520 366.252,277.439 365.200,278.464 364.657 C 284.742 361.331,296.147 353.113,303.800 346.403 C 306.379 344.142,313.201 337.194,315.800 334.181 C 317.120 332.652,319.128 330.410,320.263 329.200 C 323.326 325.936,328.291 319.856,331.043 316.000 C 333.853 312.064,336.800 307.633,336.800 307.344 C 336.800 307.234,337.310 306.392,337.933 305.472 C 338.556 304.552,339.186 303.530,339.334 303.200 C 339.481 302.870,340.217 301.520,340.969 300.200 C 341.720 298.880,343.186 296.090,344.226 294.000 C 347.211 288.002,348.215 285.755,351.999 276.600 C 352.181 276.160,352.742 274.720,353.245 273.400 C 353.748 272.080,354.304 270.829,354.480 270.620 C 354.656 270.411,354.800 269.837,354.800 269.344 C 354.800 268.851,354.959 268.349,355.154 268.229 C 355.349 268.108,355.600 267.513,355.712 266.905 C 355.825 266.297,356.359 264.540,356.899 263.000 C 357.440 261.460,358.112 259.390,358.393 258.400 C 358.913 256.568,359.499 254.651,360.403 251.824 C 360.916 250.219,362.616 243.736,363.189 241.200 C 364.187 236.783,365.678 230.409,365.996 229.200 C 366.199 228.430,366.569 226.540,366.818 225.000 C 367.067 223.460,367.542 221.120,367.874 219.800 C 368.486 217.372,368.939 214.730,369.558 210.000 C 369.745 208.570,370.018 206.950,370.163 206.400 C 370.878 203.702,371.852 196.951,372.731 188.600 C 373.470 181.591,374.048 176.971,374.484 174.600 C 374.727 173.280,375.056 170.220,375.216 167.800 C 375.906 157.347,376.412 151.140,376.785 148.562 C 377.005 147.043,377.188 144.164,377.192 142.164 C 377.196 140.165,377.453 135.755,377.762 132.364 C 378.071 128.974,378.344 124.130,378.368 121.600 C 378.393 119.070,378.583 114.030,378.792 110.400 C 379.000 106.770,379.266 98.220,379.382 91.400 C 379.690 73.312,380.085 62.405,380.423 62.614 C 380.586 62.715,380.746 48.668,380.778 31.399 L 380.836 0.000 331.118 0.047 C 303.773 0.073,280.860 0.232,280.200 0.400 M229.600 2.600 C 229.600 2.930,229.780 3.200,230.000 3.200 C 230.220 3.200,230.400 2.930,230.400 2.600 C 230.400 2.270,230.220 2.000,230.000 2.000 C 229.780 2.000,229.600 2.270,229.600 2.600 M184.900 10.676 C 185.285 10.776,185.915 10.776,186.300 10.676 C 186.685 10.575,186.370 10.493,185.600 10.493 C 184.830 10.493,184.515 10.575,184.900 10.676 M145.400 22.800 C 145.085 23.309,146.012 23.309,146.800 22.800 C 147.288 22.485,147.236 22.411,146.524 22.406 C 146.042 22.403,145.536 22.580,145.400 22.800 M247.400 60.701 C 260.351 62.910,267.186 64.817,275.869 68.646 C 283.170 71.865,290.180 76.033,295.043 80.045 C 295.946 80.790,297.145 81.760,297.707 82.201 C 300.297 84.233,306.139 90.241,308.403 93.200 C 309.160 94.190,309.888 95.090,310.022 95.200 C 310.155 95.310,311.170 96.750,312.276 98.400 C 325.881 118.685,328.977 144.300,321.195 172.200 C 314.810 195.096,296.579 215.595,274.200 225.045 C 265.081 228.895,257.880 231.490,251.800 233.116 C 250.920 233.352,249.210 233.808,248.000 234.130 C 246.790 234.452,244.810 234.909,243.600 235.145 C 242.390 235.381,240.086 235.847,238.480 236.180 C 235.569 236.785,224.534 237.289,200.600 237.910 L 189.400 238.200 189.299 292.493 L 189.197 346.785 188.299 347.003 C 187.804 347.122,172.550 347.171,154.400 347.110 L 121.400 347.000 121.299 203.491 L 121.199 59.983 183.099 60.137 C 222.741 60.236,245.863 60.439,247.400 60.701 M380.274 107.500 C 380.178 107.665,380.245 108.160,380.422 108.600 C 380.703 109.298,380.747 109.260,380.772 108.300 C 380.800 107.215,380.612 106.914,380.274 107.500 M51.374 107.958 C 51.496 108.155,51.301 108.429,50.940 108.568 C 50.580 108.706,50.397 108.930,50.533 109.066 C 50.824 109.357,52.000 108.463,52.000 107.951 C 52.000 107.758,51.809 107.600,51.576 107.600 C 51.343 107.600,51.252 107.761,51.374 107.958 M196.800 112.264 C 195.810 112.333,193.515 112.498,191.700 112.630 L 188.400 112.872 188.400 148.828 L 188.400 184.785 189.394 185.034 C 191.485 185.559,218.455 184.896,221.794 184.238 C 241.350 180.383,254.111 165.996,254.112 147.800 C 254.112 133.846,248.200 124.465,235.400 118.111 C 225.899 113.394,211.651 111.236,196.800 112.264 M380.203 112.792 C 380.064 113.227,380.137 113.902,380.363 114.292 C 380.700 114.870,380.778 114.724,380.788 113.500 C 380.801 111.842,380.587 111.582,380.203 112.792 M36.813 148.000 C 36.521 148.733,36.588 149.972,36.903 149.657 C 37.108 149.452,37.189 148.951,37.084 148.542 C 36.979 148.134,36.857 147.890,36.813 148.000 M373.969 190.300 C 373.953 190.465,373.878 190.915,373.805 191.300 C 373.731 191.685,373.835 192.000,374.035 192.000 C 374.236 192.000,374.400 191.550,374.400 191.000 C 374.400 190.111,374.047 189.537,373.969 190.300 M25.742 205.438 C 25.711 205.967,25.807 206.400,25.957 206.400 C 26.321 206.400,26.424 204.862,26.075 204.646 C 25.924 204.553,25.774 204.909,25.742 205.438 M354.411 274.480 C 353.612 276.668,353.210 278.124,353.478 277.856 C 353.842 277.492,355.219 273.486,355.042 273.308 C 354.960 273.226,354.676 273.753,354.411 274.480 M19.281 284.030 C 19.411 285.735,19.826 285.844,19.812 284.169 C 19.805 283.416,19.662 282.800,19.494 282.800 C 19.325 282.800,19.229 283.354,19.281 284.030 M19.275 289.200 C 19.270 291.287,19.337 291.571,19.616 290.640 C 19.809 289.994,19.812 288.843,19.622 288.040 C 19.320 286.766,19.280 286.900,19.275 289.200 M19.314 295.000 C 19.317 296.100,19.395 296.503,19.487 295.895 C 19.579 295.286,19.577 294.386,19.482 293.895 C 19.387 293.403,19.311 293.900,19.314 295.000 M255.768 377.340 C 255.629 377.701,255.367 377.904,255.186 377.791 C 255.004 377.679,254.765 377.733,254.655 377.910 C 254.545 378.088,254.813 378.261,255.249 378.294 C 256.028 378.352,256.732 377.398,256.259 376.925 C 256.127 376.793,255.906 376.980,255.768 377.340 M249.467 379.867 C 249.084 380.249,249.138 380.800,249.557 380.800 C 249.754 380.800,250.018 380.530,250.145 380.200 C 250.379 379.590,249.953 379.381,249.467 379.867 M214.900 390.276 C 215.285 390.376,215.915 390.376,216.300 390.276 C 216.685 390.175,216.370 390.093,215.600 390.093 C 214.830 390.093,214.515 390.175,214.900 390.276 M185.338 396.100 C 185.236 396.265,185.603 396.400,186.153 396.400 C 186.703 396.400,187.236 396.265,187.338 396.100 C 187.440 395.935,187.074 395.800,186.524 395.800 C 185.974 395.800,185.440 395.935,185.338 396.100 M170.806 398.053 L 169.812 398.880 170.770 398.740 C 171.308 398.661,171.772 398.293,171.828 397.900 C 171.950 397.054,172.020 397.043,170.806 398.053 " stroke="none" fill="#73cb73" fill-rule="evenodd"></path><path id="path2" d="M150.500 60.300 C 165.405 60.358,189.795 60.358,204.700 60.300 C 219.605 60.242,207.410 60.194,177.600 60.194 C 147.790 60.194,135.595 60.242,150.500 60.300 M121.699 60.700 C 121.631 61.041,121.545 307.379,121.599 346.400 C 121.600 346.620,121.915 346.797,122.300 346.794 C 122.799 346.790,122.856 346.697,122.501 346.471 C 122.103 346.218,121.980 316.949,121.900 203.177 C 121.844 124.540,121.754 60.425,121.699 60.700 M238.454 60.587 C 238.556 60.690,240.971 61.048,243.820 61.383 C 255.066 62.707,262.675 64.488,271.974 67.971 C 273.170 68.419,274.210 68.723,274.286 68.647 C 274.801 68.132,263.636 64.412,257.800 63.154 C 249.877 61.446,237.697 59.830,238.454 60.587 M278.514 70.796 C 305.760 84.450,320.883 105.790,323.996 134.977 C 324.445 139.180,324.800 140.400,324.800 137.737 C 324.800 129.623,319.979 112.064,315.885 105.267 C 315.398 104.459,314.555 102.946,314.011 101.905 C 309.228 92.743,297.640 81.476,285.000 73.697 C 282.496 72.156,275.636 68.794,275.043 68.817 C 274.799 68.827,276.361 69.717,278.514 70.796 M199.400 111.058 C 198.960 111.141,196.200 111.354,193.267 111.533 C 189.360 111.772,187.838 112.011,187.573 112.429 C 187.366 112.758,187.210 128.311,187.206 149.086 L 187.200 185.172 188.034 185.618 C 188.622 185.933,193.465 186.013,204.534 185.889 C 221.040 185.704,220.255 185.778,228.000 183.689 C 230.452 183.028,235.307 180.555,238.252 178.468 C 264.529 159.844,259.848 124.552,229.800 114.745 C 221.475 112.028,204.944 110.023,199.400 111.058 M213.200 112.038 C 219.704 112.578,226.056 113.841,230.200 115.419 C 231.080 115.754,232.160 116.143,232.600 116.283 C 245.744 120.453,254.564 133.027,254.569 147.600 C 254.575 166.041,242.080 180.437,222.400 184.662 C 219.027 185.386,189.439 185.935,188.495 185.291 C 188.020 184.967,187.666 113.000,188.138 112.529 C 188.225 112.441,191.065 112.191,194.448 111.972 C 197.832 111.753,200.960 111.518,201.400 111.449 C 202.417 111.289,206.817 111.509,213.200 112.038 M324.043 152.900 C 323.065 161.807,319.721 176.013,318.259 177.475 C 318.116 177.617,318.000 177.963,318.000 178.243 C 318.000 178.960,313.939 187.491,312.166 190.498 C 311.354 191.874,310.364 193.575,309.965 194.278 C 306.143 201.003,296.397 210.941,288.400 216.267 C 279.078 222.475,263.629 229.105,250.800 232.402 C 250.030 232.600,248.410 233.034,247.200 233.367 C 245.990 233.700,243.830 234.232,242.400 234.551 C 240.970 234.869,240.229 235.145,240.754 235.165 C 241.278 235.184,242.358 235.032,243.154 234.827 C 243.949 234.622,245.860 234.154,247.400 233.787 C 264.571 229.697,282.209 221.852,293.000 213.504 C 310.411 200.036,323.077 175.405,324.680 151.900 C 325.017 146.948,324.631 147.556,324.043 152.900 M235.400 235.606 C 233.676 235.944,227.886 236.174,204.200 236.842 C 194.889 237.105,188.805 237.432,188.496 237.688 C 187.855 238.218,187.768 346.991,188.408 346.595 C 188.661 346.439,188.800 327.087,188.800 292.164 C 188.800 249.166,188.903 237.941,189.300 237.813 C 189.575 237.724,198.080 237.454,208.200 237.213 C 226.399 236.779,235.683 236.291,238.400 235.625 L 239.800 235.282 238.400 235.287 C 237.630 235.290,236.280 235.433,235.400 235.606 " stroke="none" fill="#345c34" fill-rule="evenodd"></path><path id="path3" d="M121.206 60.700 C 121.210 61.150,121.317 61.236,121.506 60.940 C 121.668 60.688,122.250 60.397,122.800 60.295 C 123.647 60.137,123.601 60.101,122.500 60.054 C 121.506 60.013,121.201 60.165,121.206 60.700 M237.600 60.388 C 243.696 60.686,246.399 61.007,252.919 62.206 C 270.071 65.358,282.678 70.944,295.692 81.155 C 302.401 86.420,311.028 96.190,314.011 101.905 C 314.555 102.946,315.398 104.459,315.885 105.267 C 320.376 112.725,324.127 126.851,324.788 138.800 L 325.065 143.800 325.132 139.507 C 325.261 131.354,322.885 119.987,319.216 111.200 C 317.205 106.383,311.460 96.386,310.022 95.200 C 309.888 95.090,309.160 94.190,308.403 93.200 C 306.139 90.241,300.297 84.233,297.707 82.201 C 297.145 81.760,295.946 80.790,295.043 80.045 C 286.173 72.727,272.882 66.374,259.821 63.209 C 250.582 60.971,246.695 60.437,238.200 60.241 L 231.400 60.084 237.600 60.388 M121.398 203.600 C 121.398 281.810,121.444 313.805,121.500 274.700 C 121.556 235.595,121.556 171.605,121.500 132.500 C 121.444 93.395,121.398 125.390,121.398 203.600 M201.400 111.449 C 200.960 111.518,197.832 111.753,194.448 111.972 C 191.065 112.191,188.225 112.441,188.138 112.529 C 187.666 113.000,188.020 184.967,188.495 185.291 C 189.439 185.935,219.027 185.386,222.400 184.662 C 248.155 179.132,261.878 154.291,251.271 132.400 C 248.112 125.881,239.546 118.487,232.600 116.283 C 232.160 116.143,231.080 115.754,230.200 115.419 C 224.235 113.148,206.314 110.677,201.400 111.449 M212.931 112.425 C 224.538 113.437,232.697 115.982,240.400 120.994 C 257.391 132.048,259.204 156.919,244.141 172.309 C 237.643 178.949,231.212 182.382,221.794 184.238 C 218.455 184.896,191.485 185.559,189.394 185.034 L 188.400 184.785 188.400 148.828 L 188.400 112.872 191.700 112.630 C 193.515 112.498,195.810 112.333,196.800 112.264 C 201.176 111.961,208.448 112.034,212.931 112.425 M324.741 150.000 C 323.805 169.505,315.352 190.361,302.653 204.502 C 297.149 210.630,289.178 216.868,281.679 220.915 C 280.073 221.782,278.836 222.570,278.931 222.665 C 279.386 223.119,289.255 216.976,293.374 213.674 C 306.285 203.325,316.948 187.428,321.195 172.200 C 324.253 161.238,325.374 154.413,325.137 148.200 C 325.002 144.660,324.996 144.690,324.741 150.000 M276.308 223.623 C 271.194 226.323,255.447 231.862,247.400 233.791 C 237.494 236.166,234.867 236.442,217.000 236.985 C 202.214 237.434,201.439 237.489,209.126 237.541 C 220.066 237.617,234.552 236.940,238.400 236.174 C 240.050 235.846,242.390 235.383,243.600 235.147 C 244.810 234.910,246.790 234.452,248.000 234.130 C 249.210 233.808,250.920 233.352,251.800 233.116 C 257.611 231.562,266.445 228.397,273.401 225.378 C 274.061 225.091,275.456 224.490,276.501 224.043 C 277.545 223.595,278.400 223.132,278.400 223.014 C 278.400 222.648,277.855 222.806,276.308 223.623 M188.986 238.100 C 188.882 238.375,188.753 262.900,188.699 292.600 L 188.600 346.600 155.225 346.702 C 128.805 346.783,121.776 346.700,121.495 346.302 C 121.230 345.928,121.181 345.953,121.303 346.400 C 121.468 347.004,185.897 347.584,188.299 347.003 L 189.197 346.785 189.299 292.493 L 189.400 238.200 195.000 237.983 L 200.600 237.765 194.887 237.683 C 190.622 237.621,189.127 237.727,188.986 238.100 " stroke="none" fill="#3f7744" fill-rule="evenodd"></path><path id="path4" d="M252.400 0.600 C 252.400 1.103,251.542 1.200,247.080 1.200 C 244.154 1.200,241.589 1.360,241.380 1.555 C 241.171 1.750,238.683 1.999,235.852 2.109 C 232.369 2.244,230.605 2.469,230.397 2.805 C 230.222 3.088,229.871 3.167,229.583 2.989 C 229.253 2.786,229.176 2.838,229.362 3.138 C 229.571 3.476,228.522 3.600,225.457 3.600 C 222.988 3.600,221.211 3.766,221.132 4.005 C 221.058 4.227,220.132 4.477,219.076 4.560 C 218.019 4.644,217.057 4.810,216.938 4.929 C 216.818 5.049,216.275 4.944,215.731 4.696 C 214.959 4.344,214.670 4.363,214.412 4.780 C 214.222 5.087,213.724 5.221,213.240 5.095 C 212.778 4.974,212.492 5.025,212.606 5.210 C 212.966 5.792,212.239 5.953,208.865 6.034 C 207.058 6.077,205.677 6.211,205.797 6.330 C 206.215 6.749,203.489 7.600,201.728 7.600 C 200.749 7.600,199.631 7.770,199.243 7.977 C 198.856 8.184,197.257 8.391,195.690 8.437 C 193.949 8.488,192.871 8.684,192.920 8.942 C 192.964 9.174,192.820 9.375,192.600 9.388 C 192.380 9.401,192.020 9.513,191.800 9.636 C 191.580 9.758,190.682 9.820,189.805 9.773 C 188.928 9.726,187.853 9.938,187.416 10.244 C 186.979 10.550,185.865 10.800,184.940 10.800 C 183.977 10.800,183.000 11.057,182.657 11.400 C 182.327 11.730,181.402 12.000,180.602 12.000 C 179.802 12.000,178.825 12.173,178.431 12.383 C 178.037 12.594,176.787 12.819,175.654 12.883 C 174.222 12.964,173.534 13.188,173.396 13.618 C 173.274 13.999,172.638 14.274,171.742 14.335 C 170.941 14.389,169.964 14.605,169.569 14.816 C 169.175 15.027,168.211 15.200,167.426 15.200 C 166.642 15.200,166.000 15.380,166.000 15.600 C 166.000 15.820,165.809 16.000,165.576 16.000 C 165.343 16.000,165.281 15.792,165.438 15.538 C 165.621 15.243,165.547 15.185,165.235 15.379 C 164.966 15.545,164.842 15.933,164.960 16.240 C 165.127 16.674,164.722 16.800,163.164 16.800 C 161.925 16.800,161.248 16.954,161.400 17.200 C 161.545 17.435,161.059 17.625,160.224 17.660 C 159.441 17.693,158.575 17.738,158.300 17.760 C 158.025 17.782,157.671 18.115,157.513 18.500 C 157.330 18.945,156.793 19.200,156.036 19.200 C 155.382 19.200,154.751 19.356,154.632 19.547 C 154.514 19.739,153.717 20.007,152.861 20.144 C 152.005 20.281,151.078 20.664,150.803 20.996 C 150.527 21.328,149.806 21.600,149.200 21.600 C 148.594 21.600,147.889 21.851,147.634 22.159 C 147.153 22.738,143.720 24.000,142.625 24.000 C 142.281 24.000,142.000 24.173,142.000 24.385 C 142.000 24.596,141.280 24.963,140.400 25.200 C 139.520 25.437,138.800 25.774,138.800 25.949 C 138.800 26.123,138.395 26.229,137.900 26.183 C 137.405 26.137,136.730 26.428,136.400 26.829 C 136.070 27.231,135.350 27.631,134.800 27.719 C 134.250 27.807,133.350 28.065,132.800 28.292 C 132.250 28.520,131.678 28.635,131.529 28.547 C 131.380 28.460,131.155 28.712,131.030 29.107 C 130.894 29.533,130.048 30.047,128.945 30.373 C 127.924 30.675,126.803 31.254,126.455 31.661 C 126.107 32.067,125.620 32.400,125.373 32.400 C 124.762 32.400,122.470 33.563,122.191 34.015 C 121.871 34.532,119.458 35.630,118.480 35.704 C 118.026 35.738,117.664 35.864,117.675 35.983 C 117.749 36.798,117.514 37.200,116.962 37.200 C 116.611 37.200,115.825 37.555,115.217 37.988 C 114.608 38.422,113.995 38.662,113.855 38.522 C 113.715 38.381,113.600 38.567,113.600 38.933 C 113.600 39.520,112.880 39.813,111.870 39.637 C 111.689 39.606,111.632 39.729,111.744 39.910 C 111.857 40.091,111.581 40.469,111.132 40.749 C 110.462 41.168,110.365 41.164,110.589 40.730 C 110.738 40.438,110.503 40.605,110.066 41.100 C 109.629 41.595,109.076 42.000,108.836 42.000 C 108.596 42.000,108.400 42.139,108.400 42.309 C 108.400 42.479,107.762 42.962,106.982 43.382 C 106.202 43.802,105.130 44.579,104.601 45.108 C 104.040 45.669,103.437 45.947,103.157 45.774 C 102.853 45.585,102.781 45.646,102.962 45.938 C 103.119 46.192,103.057 46.400,102.824 46.400 C 102.591 46.400,102.040 46.760,101.600 47.200 C 101.160 47.640,100.592 48.045,100.338 48.100 C 100.083 48.155,99.257 48.786,98.502 49.501 C 97.746 50.217,96.937 50.684,96.702 50.540 C 96.451 50.384,96.394 50.466,96.562 50.738 C 96.743 51.032,96.539 51.200,96.000 51.200 C 95.534 51.200,95.257 51.369,95.385 51.576 C 95.669 52.034,93.622 54.000,92.861 54.000 C 92.540 54.000,92.409 54.247,92.545 54.600 C 92.686 54.968,92.544 55.200,92.177 55.200 C 91.848 55.200,90.802 55.965,89.852 56.900 C 88.903 57.835,87.693 58.991,87.163 59.468 C 86.633 59.945,85.680 60.885,85.044 61.557 C 84.409 62.229,83.706 62.665,83.482 62.527 C 83.259 62.389,83.185 62.452,83.318 62.667 C 83.450 62.882,83.253 63.342,82.880 63.690 C 82.506 64.038,81.493 65.060,80.630 65.961 C 79.766 66.863,78.900 67.600,78.706 67.600 C 78.512 67.600,78.464 67.780,78.600 68.000 C 78.736 68.220,78.567 68.400,78.224 68.400 C 77.881 68.400,77.600 68.670,77.600 69.000 C 77.600 69.330,77.426 69.600,77.213 69.600 C 76.999 69.600,76.929 69.870,77.055 70.200 C 77.201 70.580,77.050 70.800,76.643 70.800 C 76.289 70.800,76.000 70.942,76.000 71.115 C 76.000 71.289,75.145 72.366,74.100 73.509 C 70.817 77.101,70.000 78.089,70.000 78.474 C 70.000 78.679,69.820 78.736,69.600 78.600 C 69.380 78.464,69.200 78.624,69.200 78.957 C 69.200 79.289,68.885 79.744,68.500 79.968 C 68.115 80.192,67.944 80.381,68.120 80.388 C 68.296 80.395,67.892 80.985,67.222 81.700 C 66.552 82.415,66.003 83.197,66.002 83.438 C 66.001 83.679,65.640 84.202,65.200 84.600 C 64.760 84.998,64.400 85.523,64.400 85.767 C 64.400 86.011,63.962 86.539,63.426 86.941 C 62.886 87.347,62.548 87.921,62.668 88.233 C 62.786 88.541,62.594 88.904,62.242 89.039 C 61.889 89.175,61.600 89.600,61.600 89.984 C 61.600 90.369,61.158 91.160,60.618 91.742 C 60.079 92.325,59.323 93.476,58.939 94.301 C 58.556 95.125,58.115 95.890,57.961 96.000 C 57.806 96.110,57.617 96.560,57.540 97.000 C 57.463 97.440,57.085 98.091,56.700 98.447 C 56.315 98.803,56.000 99.398,56.000 99.771 C 56.000 100.143,55.820 100.336,55.600 100.200 C 55.380 100.064,55.200 100.323,55.200 100.776 C 55.200 101.229,54.868 101.932,54.463 102.337 C 54.057 102.743,53.478 103.913,53.175 104.937 C 52.873 105.962,52.485 106.800,52.313 106.800 C 52.141 106.800,52.000 107.087,52.000 107.437 C 52.000 107.787,51.640 108.531,51.200 109.091 C 50.760 109.650,50.400 110.454,50.400 110.878 C 50.400 111.301,50.220 111.536,50.000 111.400 C 49.767 111.256,49.600 111.663,49.600 112.376 C 49.600 113.049,49.456 113.600,49.280 113.600 C 49.105 113.600,48.733 114.230,48.454 115.000 C 48.176 115.770,47.786 116.400,47.587 116.400 C 47.388 116.400,47.320 116.647,47.436 116.948 C 47.551 117.250,47.359 117.784,47.009 118.134 C 46.658 118.485,46.378 118.868,46.386 118.986 C 46.394 119.104,46.385 119.245,46.367 119.300 C 46.349 119.355,46.247 119.937,46.141 120.593 C 46.035 121.248,45.735 121.921,45.474 122.086 C 45.213 122.252,45.157 122.391,45.349 122.394 C 45.541 122.397,45.497 122.642,45.252 122.937 C 45.007 123.232,44.921 123.588,45.061 123.727 C 45.200 123.867,45.048 124.083,44.723 124.208 C 44.362 124.347,44.158 124.890,44.200 125.600 C 44.241 126.296,44.038 126.853,43.693 126.986 C 43.376 127.107,43.221 127.477,43.348 127.808 C 43.603 128.474,42.835 130.469,42.422 130.213 C 42.278 130.124,42.116 130.700,42.063 131.491 C 41.946 133.223,41.614 133.870,41.193 133.189 C 41.024 132.916,40.980 133.526,41.095 134.546 C 41.234 135.781,41.153 136.400,40.852 136.400 C 40.603 136.400,40.400 136.760,40.400 137.200 C 40.400 137.640,40.220 138.000,40.000 138.000 C 39.780 138.000,39.600 138.461,39.600 139.024 C 39.600 139.587,39.455 139.957,39.277 139.847 C 39.099 139.738,38.909 140.402,38.855 141.324 C 38.801 142.246,38.587 143.171,38.379 143.380 C 38.170 143.589,38.000 144.444,38.000 145.280 C 38.000 146.252,37.827 146.764,37.520 146.700 C 37.200 146.634,37.075 147.090,37.147 148.060 C 37.206 148.862,37.062 149.638,36.827 149.783 C 36.592 149.928,36.400 150.407,36.400 150.847 C 36.400 151.287,36.220 151.536,36.000 151.400 C 35.753 151.248,35.600 151.929,35.600 153.176 C 35.600 154.289,35.420 155.200,35.200 155.200 C 34.980 155.200,34.800 155.999,34.800 156.976 C 34.800 157.953,34.651 158.845,34.468 158.958 C 34.286 159.070,33.915 160.206,33.644 161.481 C 33.373 162.757,32.983 164.353,32.776 165.028 C 32.569 165.704,32.400 166.998,32.400 167.905 C 32.400 168.811,32.220 169.664,32.000 169.800 C 31.780 169.936,31.600 170.872,31.600 171.880 C 31.600 173.085,31.385 173.869,30.970 174.172 C 30.535 174.491,30.280 175.534,30.144 177.560 C 30.036 179.170,29.810 180.873,29.642 181.344 C 29.474 181.815,29.290 183.099,29.232 184.199 C 29.175 185.298,28.928 186.321,28.684 186.472 C 28.440 186.623,28.240 187.386,28.240 188.167 C 28.240 188.949,28.116 189.388,27.965 189.143 C 27.813 188.898,27.735 189.978,27.791 191.544 C 27.858 193.415,27.724 194.531,27.403 194.798 C 27.095 195.053,26.934 196.181,26.969 197.825 C 27.006 199.499,26.845 200.597,26.525 200.862 C 26.250 201.091,26.085 201.793,26.158 202.423 C 26.231 203.054,26.091 203.637,25.846 203.720 C 25.529 203.827,25.541 204.041,25.891 204.465 C 26.160 204.792,26.290 205.496,26.179 206.030 C 26.068 206.563,25.872 207.720,25.742 208.600 C 25.612 209.480,25.302 210.332,25.053 210.494 C 24.739 210.697,24.767 210.790,25.143 210.794 C 25.496 210.798,25.590 211.044,25.413 211.500 C 25.263 211.885,25.060 213.280,24.962 214.600 C 24.863 215.920,24.667 217.270,24.526 217.600 C 24.104 218.586,24.102 218.613,24.050 223.800 C 24.021 226.724,23.839 228.800,23.613 228.800 C 23.399 228.800,23.322 228.548,23.440 228.240 C 23.558 227.933,23.504 227.588,23.320 227.474 C 23.136 227.360,23.054 229.796,23.139 232.886 C 23.234 236.335,23.148 238.415,22.917 238.273 C 22.705 238.142,22.501 238.918,22.449 240.050 C 22.399 241.155,22.206 242.459,22.020 242.949 C 21.834 243.438,21.654 246.524,21.621 249.807 C 21.588 253.090,21.395 255.879,21.192 256.005 C 20.987 256.132,20.804 259.845,20.783 264.317 C 20.762 268.763,20.616 272.400,20.458 272.400 C 20.300 272.400,20.152 272.715,20.129 273.100 C 19.422 284.648,18.962 336.400,19.566 336.400 C 19.836 336.400,20.009 335.301,20.025 333.500 C 20.039 331.905,20.105 329.250,20.172 327.600 C 20.239 325.950,20.418 317.940,20.569 309.800 C 20.721 301.660,21.013 292.030,21.217 288.400 C 21.422 284.770,21.695 278.470,21.824 274.400 C 21.954 270.330,22.226 265.565,22.430 263.810 C 22.633 262.056,22.804 258.816,22.808 256.610 C 22.812 254.405,23.071 250.440,23.382 247.800 C 23.694 245.160,23.987 241.494,24.035 239.653 C 24.082 237.812,24.267 235.526,24.445 234.572 C 24.623 233.618,24.792 231.434,24.819 229.719 C 24.847 228.003,25.034 225.950,25.235 225.156 C 25.604 223.698,26.632 215.066,27.184 208.800 C 27.348 206.930,27.598 205.130,27.739 204.800 C 27.880 204.470,28.075 203.030,28.173 201.600 C 28.271 200.170,28.542 197.920,28.775 196.600 C 29.461 192.712,30.376 187.122,30.608 185.400 C 31.046 182.151,31.262 180.943,31.850 178.474 C 32.180 177.084,32.637 174.924,32.865 173.674 C 33.094 172.423,33.429 170.590,33.611 169.600 C 33.793 168.610,34.243 166.540,34.612 165.000 C 35.536 161.140,36.401 157.233,36.648 155.800 C 36.761 155.140,37.004 154.240,37.187 153.800 C 37.369 153.360,37.822 151.740,38.194 150.200 C 38.565 148.660,39.120 146.590,39.427 145.600 C 39.734 144.610,40.462 142.180,41.043 140.200 C 42.095 136.619,43.317 132.927,43.955 131.400 C 44.139 130.960,44.512 129.880,44.784 129.000 C 45.323 127.255,48.123 119.844,49.091 117.600 C 49.423 116.830,49.964 115.570,50.293 114.800 C 55.303 103.082,64.617 87.111,70.841 79.567 C 83.359 64.392,95.328 53.159,107.976 44.713 C 110.519 43.014,112.806 41.450,113.058 41.236 C 113.311 41.021,114.121 40.515,114.858 40.110 C 115.596 39.705,116.920 38.912,117.800 38.348 C 121.710 35.840,136.033 28.593,140.800 26.710 C 141.350 26.493,142.520 25.982,143.400 25.576 C 144.280 25.169,147.340 23.999,150.200 22.977 C 153.060 21.954,155.760 20.971,156.200 20.791 C 156.640 20.611,158.260 20.060,159.800 19.568 C 161.340 19.075,162.960 18.538,163.400 18.373 C 163.840 18.209,165.060 17.853,166.110 17.582 C 167.161 17.312,168.117 16.935,168.234 16.745 C 168.351 16.555,169.056 16.400,169.800 16.400 C 170.544 16.400,171.264 16.220,171.400 16.000 C 171.536 15.780,172.064 15.600,172.573 15.600 C 173.083 15.600,174.287 15.308,175.250 14.950 C 176.958 14.317,178.109 14.035,182.200 13.252 C 183.300 13.041,184.740 12.646,185.400 12.373 C 186.060 12.101,187.500 11.734,188.600 11.558 C 194.510 10.612,195.718 10.365,196.508 9.942 C 196.985 9.687,198.460 9.343,199.787 9.177 C 204.732 8.557,209.949 7.679,210.423 7.386 C 210.693 7.219,212.193 6.942,213.757 6.769 C 215.321 6.597,218.580 6.179,221.000 5.840 C 230.972 4.443,237.472 3.662,241.400 3.388 C 242.940 3.281,245.370 3.020,246.800 2.810 C 248.230 2.599,252.585 2.228,256.478 1.986 C 260.372 1.744,264.692 1.381,266.078 1.181 C 267.465 0.980,270.940 0.791,273.800 0.761 C 276.660 0.730,279.540 0.568,280.200 0.400 C 280.860 0.232,274.875 0.073,266.900 0.047 C 254.257 0.006,252.400 0.077,252.400 0.600 M380.509 59.600 C 380.509 60.590,380.587 60.995,380.682 60.500 C 380.778 60.005,380.778 59.195,380.682 58.700 C 380.587 58.205,380.509 58.610,380.509 59.600 M379.860 70.715 C 379.713 75.272,379.498 84.580,379.382 91.400 C 379.266 98.220,379.000 106.770,378.792 110.400 C 378.583 114.030,378.393 119.070,378.368 121.600 C 378.344 124.130,378.071 128.974,377.762 132.364 C 377.453 135.755,377.196 140.165,377.192 142.164 C 377.188 144.164,377.005 147.043,376.785 148.562 C 376.412 151.140,375.906 157.347,375.216 167.800 C 375.056 170.220,374.727 173.280,374.484 174.600 C 374.048 176.971,373.470 181.591,372.731 188.600 C 371.852 196.951,370.878 203.702,370.163 206.400 C 370.018 206.950,369.745 208.570,369.558 210.000 C 368.939 214.730,368.486 217.372,367.874 219.800 C 367.542 221.120,367.067 223.460,366.818 225.000 C 366.569 226.540,366.199 228.430,365.996 229.200 C 365.678 230.409,364.187 236.783,363.189 241.200 C 362.616 243.736,360.916 250.219,360.403 251.824 C 359.499 254.651,358.913 256.568,358.393 258.400 C 358.112 259.390,357.440 261.460,356.899 263.000 C 356.359 264.540,355.825 266.297,355.712 266.905 C 355.600 267.513,355.349 268.108,355.154 268.229 C 354.959 268.349,354.800 268.851,354.800 269.344 C 354.800 269.837,354.656 270.411,354.480 270.620 C 354.304 270.829,353.748 272.080,353.245 273.400 C 352.742 274.720,352.181 276.160,351.999 276.600 C 348.215 285.755,347.211 288.002,344.226 294.000 C 343.186 296.090,341.720 298.880,340.969 300.200 C 340.217 301.520,339.481 302.870,339.334 303.200 C 339.186 303.530,338.556 304.552,337.933 305.472 C 337.310 306.392,336.800 307.234,336.800 307.344 C 336.800 307.633,333.853 312.064,331.043 316.000 C 328.291 319.856,323.326 325.936,320.263 329.200 C 319.128 330.410,317.120 332.652,315.800 334.181 C 306.194 345.314,289.961 358.565,278.464 364.657 C 277.439 365.200,275.520 366.252,274.200 366.994 C 272.880 367.736,270.090 369.187,268.000 370.218 C 265.910 371.249,263.187 372.593,261.948 373.204 C 260.710 373.815,259.147 374.436,258.476 374.583 C 257.805 374.731,257.041 375.110,256.779 375.426 C 256.517 375.742,255.910 376.000,255.431 376.000 C 254.952 376.000,254.389 376.155,254.180 376.345 C 253.971 376.535,253.260 376.884,252.600 377.120 C 251.940 377.355,249.870 378.115,248.000 378.808 C 246.130 379.501,243.250 380.514,241.600 381.058 C 239.950 381.602,238.240 382.206,237.800 382.400 C 237.360 382.595,236.370 382.876,235.600 383.025 C 234.830 383.174,233.714 383.545,233.120 383.848 C 232.526 384.152,231.591 384.400,231.043 384.400 C 230.496 384.400,229.936 384.580,229.800 384.800 C 229.664 385.020,229.068 385.208,228.476 385.218 C 227.884 385.227,226.680 385.513,225.800 385.853 C 224.198 386.471,222.174 386.962,218.800 387.551 C 217.810 387.724,216.303 388.166,215.451 388.533 C 214.599 388.900,213.477 389.200,212.957 389.200 C 211.993 389.200,210.619 389.480,206.000 390.615 C 204.570 390.966,202.410 391.404,201.200 391.589 C 199.990 391.773,197.650 392.128,196.000 392.378 C 194.350 392.628,192.460 393.016,191.800 393.241 C 191.140 393.466,189.160 393.820,187.400 394.027 C 185.640 394.234,182.400 394.671,180.200 394.997 C 170.553 396.426,158.356 397.735,144.400 398.840 C 133.668 399.689,134.506 399.953,147.200 399.723 C 154.130 399.597,160.017 399.488,160.282 399.480 C 160.548 399.473,160.672 399.317,160.559 399.133 C 160.445 398.950,161.758 398.782,163.476 398.759 C 169.265 398.683,170.365 398.556,171.121 397.872 C 171.711 397.337,172.678 397.200,175.851 397.200 C 178.064 397.200,180.024 397.016,180.254 396.786 C 180.481 396.559,181.732 396.297,183.034 396.204 C 184.335 396.112,185.400 396.017,185.400 395.995 C 185.400 395.972,186.105 395.880,186.967 395.790 C 187.829 395.700,188.720 395.440,188.947 395.213 C 189.174 394.986,190.586 394.800,192.085 394.800 C 194.495 394.800,196.180 394.349,196.800 393.538 C 196.910 393.395,198.260 393.168,199.800 393.034 C 206.954 392.413,207.539 392.317,208.275 391.630 C 208.785 391.156,209.614 390.941,210.816 390.972 C 211.797 390.998,213.086 390.789,213.680 390.509 C 214.274 390.229,215.467 390.000,216.331 390.000 C 217.240 390.000,218.112 389.747,218.400 389.400 C 218.702 389.036,219.578 388.800,220.625 388.800 C 221.575 388.800,222.464 388.620,222.600 388.400 C 222.736 388.180,223.602 387.998,224.524 387.995 C 226.757 387.987,228.086 387.601,227.864 387.023 C 227.747 386.717,228.253 386.518,229.305 386.456 C 230.197 386.403,231.247 386.189,231.637 385.980 C 232.028 385.771,232.875 385.600,233.520 385.600 C 234.165 385.600,235.150 385.240,235.709 384.800 C 236.269 384.360,237.195 384.000,237.769 384.000 C 238.342 384.000,239.123 383.830,239.505 383.622 C 239.887 383.414,240.875 383.136,241.700 383.004 C 242.636 382.854,243.200 382.545,243.200 382.182 C 243.200 381.770,243.667 381.600,244.800 381.600 C 245.680 381.600,246.400 381.440,246.400 381.245 C 246.400 381.049,247.012 380.774,247.760 380.634 C 248.508 380.494,249.340 380.114,249.609 379.789 C 249.888 379.453,250.773 379.200,251.673 379.200 C 252.620 379.200,253.149 379.041,253.000 378.800 C 252.864 378.580,253.078 378.396,253.476 378.391 C 253.874 378.386,254.650 378.030,255.200 377.600 C 255.750 377.170,256.719 376.814,257.353 376.809 C 257.987 376.804,258.797 376.469,259.153 376.064 C 259.750 375.385,261.345 374.737,262.800 374.582 C 263.130 374.547,263.625 374.492,263.900 374.459 C 264.175 374.427,264.400 374.163,264.400 373.872 C 264.400 373.576,265.307 373.098,266.469 372.781 C 267.608 372.471,268.823 371.925,269.169 371.566 C 269.516 371.208,270.655 370.595,271.700 370.203 C 272.745 369.812,273.600 369.246,273.600 368.946 C 273.600 368.606,274.053 368.400,274.800 368.400 C 275.460 368.400,276.000 368.220,276.000 368.000 C 276.000 367.780,276.270 367.600,276.600 367.600 C 276.930 367.600,277.560 367.240,278.000 366.800 C 278.440 366.360,279.070 366.000,279.400 366.000 C 279.730 366.000,280.000 365.850,280.000 365.667 C 280.000 365.483,280.270 365.303,280.600 365.267 C 280.930 365.230,281.460 365.170,281.778 365.133 C 282.096 365.097,282.344 364.962,282.330 364.833 C 282.244 364.033,282.554 363.689,283.800 363.200 C 284.570 362.898,285.200 362.504,285.200 362.325 C 285.200 362.146,285.470 362.000,285.800 362.000 C 286.130 362.000,286.400 361.820,286.400 361.600 C 286.400 361.380,286.668 361.200,286.997 361.200 C 287.325 361.200,287.818 360.840,288.093 360.400 C 288.368 359.960,288.819 359.600,289.096 359.600 C 289.373 359.600,289.600 359.420,289.600 359.200 C 289.600 358.980,290.050 358.800,290.600 358.800 C 291.333 358.800,291.600 358.587,291.600 358.000 C 291.600 357.467,291.867 357.200,292.400 357.200 C 292.840 357.200,293.200 357.020,293.200 356.800 C 293.200 356.580,293.399 356.400,293.642 356.400 C 294.115 356.400,296.781 354.430,298.355 352.917 C 298.880 352.413,299.535 352.000,299.812 352.000 C 300.088 352.000,300.419 351.726,300.548 351.392 C 300.676 351.058,301.415 350.410,302.190 349.953 C 302.966 349.495,303.600 348.869,303.600 348.560 C 303.600 348.252,303.990 348.000,304.467 348.000 C 304.943 348.000,305.229 347.895,305.101 347.767 C 304.825 347.492,307.592 344.800,308.150 344.800 C 308.361 344.800,308.426 344.693,308.295 344.561 C 308.061 344.328,311.357 340.800,311.809 340.800 C 312.066 340.800,313.217 339.589,314.978 337.468 C 315.625 336.687,316.305 336.141,316.487 336.254 C 316.670 336.367,316.794 336.311,316.763 336.130 C 316.616 335.286,316.863 334.834,317.600 334.600 C 318.040 334.460,318.400 334.179,318.400 333.975 C 318.400 333.653,320.467 331.274,323.509 328.095 C 324.009 327.573,324.459 326.933,324.509 326.673 C 324.618 326.108,325.981 324.800,326.461 324.800 C 326.648 324.800,326.800 324.532,326.800 324.203 C 326.800 323.875,327.160 323.382,327.600 323.107 C 328.040 322.832,328.400 322.381,328.400 322.104 C 328.400 321.827,328.559 321.600,328.754 321.600 C 328.949 321.600,329.413 320.959,329.785 320.176 C 330.156 319.393,330.717 318.653,331.030 318.533 C 331.344 318.413,331.600 318.064,331.600 317.757 C 331.600 317.451,331.735 317.200,331.900 317.199 C 332.065 317.199,332.712 316.389,333.337 315.399 C 333.962 314.410,334.667 313.600,334.903 313.600 C 335.140 313.600,335.229 313.495,335.101 313.367 C 334.892 313.158,336.156 310.953,337.194 309.717 C 337.417 309.451,337.600 309.133,337.600 309.010 C 337.600 308.887,338.500 307.335,339.600 305.561 C 340.700 303.788,341.600 302.081,341.600 301.768 C 341.600 301.456,341.780 301.200,342.000 301.200 C 342.220 301.200,342.400 300.880,342.400 300.488 C 342.400 300.097,342.760 299.517,343.200 299.200 C 343.640 298.883,344.000 298.410,344.000 298.149 C 344.000 297.447,345.690 294.408,345.980 294.588 C 346.118 294.673,346.269 294.270,346.317 293.694 C 346.365 293.117,346.546 292.545,346.719 292.422 C 346.892 292.300,347.280 291.435,347.581 290.500 C 347.882 289.565,348.355 288.800,348.632 288.800 C 348.910 288.800,349.251 288.215,349.392 287.500 C 349.532 286.785,349.801 285.840,349.990 285.400 C 350.179 284.960,350.572 284.015,350.864 283.300 C 351.156 282.585,351.509 282.000,351.648 282.000 C 351.884 282.000,352.479 279.712,352.298 279.498 C 352.252 279.444,352.526 278.955,352.907 278.411 C 353.288 277.867,353.600 277.185,353.600 276.894 C 353.600 276.604,354.140 275.212,354.800 273.800 C 355.460 272.388,356.000 270.866,356.000 270.417 C 356.000 269.968,356.170 269.600,356.377 269.600 C 356.584 269.600,356.682 269.225,356.594 268.766 C 356.505 268.308,356.881 267.256,357.428 266.430 C 358.019 265.536,358.525 264.049,358.675 262.763 C 358.814 261.573,359.214 260.330,359.565 260.000 C 359.915 259.670,360.243 258.771,360.293 258.003 C 360.342 257.234,360.567 256.544,360.792 256.469 C 361.016 256.395,361.200 255.628,361.200 254.767 C 361.200 253.905,361.380 253.200,361.600 253.200 C 361.820 253.200,362.000 252.409,362.000 251.443 C 362.000 250.281,362.196 249.611,362.577 249.464 C 362.894 249.343,363.159 248.918,363.165 248.521 C 363.185 247.223,363.684 245.205,363.945 245.366 C 364.085 245.452,364.248 244.685,364.307 243.662 C 364.365 242.638,364.575 241.440,364.772 241.000 C 365.173 240.109,365.821 237.717,366.562 234.400 C 366.832 233.190,367.166 231.930,367.302 231.600 C 367.551 231.001,367.827 229.022,368.262 224.726 C 368.395 223.415,368.781 222.142,369.173 221.722 C 369.635 221.225,369.886 220.175,369.957 218.441 C 370.014 217.039,370.227 215.454,370.431 214.920 C 370.634 214.385,370.800 213.242,370.800 212.378 C 370.800 211.515,371.128 209.945,371.529 208.890 C 371.930 207.835,372.216 206.363,372.164 205.619 C 372.113 204.875,372.221 203.871,372.405 203.388 C 372.589 202.904,372.779 201.359,372.829 199.954 C 372.878 198.549,373.137 196.950,373.405 196.400 C 373.672 195.850,373.813 195.185,373.719 194.922 C 373.625 194.659,373.746 194.074,373.988 193.622 C 374.230 193.170,374.264 192.800,374.063 192.800 C 373.703 192.800,373.742 191.501,374.159 189.649 C 374.277 189.127,374.409 187.957,374.452 187.049 C 374.494 186.142,374.623 185.229,374.738 185.019 C 374.853 184.810,375.007 183.376,375.080 181.832 C 375.154 180.289,375.391 178.849,375.607 178.633 C 375.823 178.417,376.000 176.127,376.000 173.544 C 376.000 170.844,376.170 168.742,376.400 168.600 C 376.629 168.459,376.800 166.404,376.800 163.800 C 376.800 161.196,376.971 159.141,377.200 159.000 C 377.420 158.864,377.600 157.874,377.600 156.800 C 377.600 155.726,377.763 154.746,377.962 154.623 C 378.162 154.500,378.349 151.673,378.379 148.342 C 378.409 145.010,378.606 141.962,378.817 141.569 C 379.028 141.175,379.200 137.612,379.200 133.652 C 379.200 129.692,379.382 125.974,379.604 125.391 C 379.825 124.807,380.050 121.420,380.104 117.865 C 380.157 114.261,380.372 111.277,380.588 111.122 C 380.838 110.943,380.821 110.260,380.542 109.213 C 380.302 108.315,380.250 107.493,380.425 107.384 C 380.862 107.115,380.909 62.915,380.474 62.646 C 380.282 62.527,380.006 66.159,379.860 70.715 " stroke="none" fill="#90cc74" fill-rule="evenodd"></path></g></svg>